<svg width="400" height="400" viewBox="0 0 400 400" fill="none" xmlns="http://www.w3.org/2000/svg">
<g clip-path="url(#clip0_1_2)">
<g clip-path="url(#clip1_1_2)">
<circle cx="220.5" cy="75.5" r="11.75" fill="white" stroke="#666666" stroke-width="1.5"/>
<path d="M222.15 71.2373C222.653 71.2373 223.19 71.3936 223.19 71.3936L223.513 69.4795C223.513 69.4795 222.829 69.2451 221.198 69.2451C220.197 69.2451 219.616 69.626 219.191 70.1875C218.791 70.7197 218.776 71.5742 218.776 72.126V73.3809H217.482V75.251H218.776V81.7451H221.198V75.251H223.117L223.259 73.3809H221.198V71.9209C221.198 71.418 221.647 71.2373 222.15 71.2373Z" fill="#666666"/>
</g>
<g clip-path="url(#clip2_1_2)">
<circle cx="247.5" cy="75.5" r="11.75" fill="white" stroke="#666666" stroke-width="1.5"/>
<path d="M247.5 69.3333C248.94 69.3333 249.94 69.3346 250.712 69.4095C251.467 69.4826 251.887 69.6181 252.199 69.8138C252.598 70.0645 252.935 70.4021 253.186 70.8011C253.382 71.1128 253.517 71.533 253.59 72.2884C253.665 73.0606 253.666 74.0611 253.666 75.5003C253.666 76.9396 253.665 77.94 253.59 78.7122C253.517 79.4673 253.382 79.8869 253.186 80.1986C252.935 80.5975 252.598 80.9352 252.199 81.1859C251.887 81.3817 251.467 81.5169 250.712 81.5902C249.94 81.6651 248.94 81.6663 247.5 81.6663C246.061 81.6663 245.061 81.665 244.288 81.5902C243.533 81.5169 243.113 81.3818 242.801 81.1859C242.402 80.9352 242.065 80.5975 241.814 80.1986C241.643 79.9258 241.517 79.5703 241.44 78.9798L241.41 78.7122L241.385 78.4115C241.335 77.683 241.333 76.7598 241.333 75.5003C241.333 74.0611 241.335 73.0606 241.41 72.2884C241.483 71.5332 241.618 71.1129 241.814 70.8011C242.065 70.4021 242.402 70.0645 242.801 69.8138C243.113 69.618 243.533 69.4826 244.288 69.4095C245.061 69.3346 246.061 69.3333 247.5 69.3333Z" stroke="#666666"/>
<path d="M247.5 78.5303C249.174 78.5303 250.53 77.1736 250.53 75.5C250.53 73.8264 249.174 72.4697 247.5 72.4697C245.826 72.4697 244.47 73.8264 244.47 75.5C244.47 77.1736 245.826 78.5303 247.5 78.5303Z" stroke="#666666"/>
<path d="M251.439 72.4697C251.941 72.4697 252.348 72.0627 252.348 71.5606C252.348 71.0585 251.941 70.6515 251.439 70.6515C250.937 70.6515 250.53 71.0585 250.53 71.5606C250.53 72.0627 250.937 72.4697 251.439 72.4697Z" fill="#666666"/>
<path d="M251.439 72.4699C251.91 72.4698 252.297 72.1119 252.344 71.6535L252.349 71.5607C252.349 71.09 251.991 70.7029 251.532 70.6564L251.439 70.6515M251.439 72.4699V70.6515M251.439 72.4699L251.347 72.465C250.919 72.4217 250.579 72.0814 250.535 71.6535L250.53 71.5607C250.53 71.0586 250.937 70.6515 251.439 70.6515M251.439 72.4699V70.6515" stroke="black" stroke-opacity="0.01" stroke-width="4.16667"/>
</g>
<g clip-path="url(#clip3_1_2)">
<path d="M17.5 58C7.83398 58 0 65.834 0 75.5C0 85.166 7.83398 93 17.5 93C27.166 93 35 85.166 35 75.5C35 65.834 27.166 58 17.5 58ZM28.4238 86.417C27.002 87.8389 25.3545 88.9531 23.5156 89.7256C21.6152 90.5322 19.5918 90.9355 17.5 90.9355C15.415 90.9355 13.3916 90.5254 11.4844 89.7256C9.64551 88.9463 7.99121 87.832 6.57617 86.417C5.1543 84.9951 4.04004 83.3477 3.26758 81.5088C2.46094 79.6084 2.05078 77.585 2.05078 75.5C2.05078 73.415 2.46094 71.3916 3.26074 69.4844C4.04004 67.6455 5.1543 65.9912 6.56934 64.5762C7.99805 63.1543 9.64551 62.04 11.4844 61.2607C13.3916 60.4609 15.415 60.0508 17.5 60.0508C19.585 60.0508 21.6084 60.4609 23.5156 61.2607C25.3545 62.04 27.0088 63.1543 28.4238 64.5693C29.8457 65.9912 30.96 67.6387 31.7324 69.4775C32.5391 71.3779 32.9424 73.4014 32.9424 75.4932C32.9424 77.5781 32.5322 79.6016 31.7324 81.5088C30.9531 83.3477 29.8389 85.002 28.4238 86.417Z" fill="#666666"/>
<path d="M17.5 82.0333V68.9667M17.5 68.9667L12.8333 73.6333M17.5 68.9667L22.1667 73.6333" stroke="#666666" stroke-width="1.5" stroke-linecap="round" stroke-linejoin="round"/>
</g>
<circle cx="13" cy="40" r="9" stroke="#22C5AD" stroke-width="2"/>
<path d="M10 40L11.9976 42L16 38" stroke="#22C5AD" stroke-width="2" stroke-linecap="round" stroke-linejoin="round"/>
<circle cx="35" cy="40" r="9" stroke="#FF0000" stroke-width="2"/>
<path d="M37 42L35 40M35 40L33 38M35 40L37 38M35 40L33 42" stroke="#FF0000" stroke-width="1.5" stroke-linecap="round" stroke-linejoin="round"/>
<g clip-path="url(#clip4_1_2)">
<circle cx="54.5" cy="75.5" r="16.5" fill="white"/>
<path d="M54.5 58C44.834 58 37 65.834 37 75.5C37 85.166 44.834 93 54.5 93C64.166 93 72 85.166 72 75.5C72 65.834 64.166 58 54.5 58ZM65.4238 86.417C64.002 87.8389 62.3545 88.9531 60.5156 89.7256C58.6152 90.5322 56.5918 90.9355 54.5 90.9355C52.415 90.9355 50.3916 90.5254 48.4844 89.7256C46.6455 88.9463 44.9912 87.832 43.5762 86.417C42.1543 84.9951 41.04 83.3477 40.2676 81.5088C39.4609 79.6084 39.0508 77.585 39.0508 75.5C39.0508 73.415 39.4609 71.3916 40.2607 69.4844C41.04 67.6455 42.1543 65.9912 43.5693 64.5762C44.998 63.1543 46.6455 62.04 48.4844 61.2607C50.3916 60.4609 52.415 60.0508 54.5 60.0508C56.585 60.0508 58.6084 60.4609 60.5156 61.2607C62.3545 62.04 64.0088 63.1543 65.4238 64.5693C66.8457 65.9912 67.96 67.6387 68.7324 69.4775C69.5391 71.3779 69.9424 73.4014 69.9424 75.4932C69.9424 77.5781 69.5322 79.6016 68.7324 81.5088C67.9531 83.3477 66.8389 85.002 65.4238 86.417Z" fill="#0D6EFD"/>
<path d="M54.5 82.0333V68.9667M54.5 68.9667L49.8333 73.6333M54.5 68.9667L59.1667 73.6333" stroke="#0D6EFD" stroke-width="1.5" stroke-linecap="round" stroke-linejoin="round"/>
</g>
<g clip-path="url(#clip5_1_2)">
<path d="M94 110C94 101.715 87.2852 95 79 95C70.7148 95 64 101.715 64 110C64 118.285 70.7148 125 79 125C87.2852 125 94 118.285 94 110ZM69.6426 119.363C68.4238 118.145 67.4688 116.732 66.8066 115.156C66.1152 113.527 65.7695 111.793 65.7695 110C65.7695 108.213 66.1211 106.479 66.8066 104.844C67.4746 103.268 68.4297 101.85 69.6426 100.637C70.8613 99.418 72.2734 98.4629 73.8496 97.8008C75.4785 97.1094 77.2129 96.7578 79 96.7578C80.7871 96.7578 82.5215 97.1094 84.1563 97.7949C85.7324 98.4629 87.1504 99.418 88.3633 100.631C89.582 101.855 90.5371 103.268 91.2051 104.844C91.8906 106.479 92.2422 108.213 92.2422 110C92.2422 111.787 91.8906 113.521 91.2051 115.156C90.5371 116.732 89.582 118.15 88.3691 119.363C87.1504 120.582 85.7383 121.537 84.1621 122.199C82.5332 122.891 80.7988 123.236 79.0059 123.236C77.2188 123.236 75.4844 122.885 73.8496 122.199C72.2734 121.531 70.8555 120.576 69.6426 119.363Z" fill="white" fill-opacity="0.5"/>
<path d="M73.9 110L85.1 110M85.1 110L81.1 106M85.1 110L81.1 114" stroke="white" stroke-width="1.5" stroke-linecap="round" stroke-linejoin="round"/>
</g>
<g clip-path="url(#clip6_1_2)">
<path d="M6.55671e-07 110C1.01783e-06 118.285 6.71485 125 15 125C23.2852 125 30 118.285 30 110C30 101.715 23.2852 95 15 95C6.71484 95 2.93515e-07 101.715 6.55671e-07 110ZM24.3574 100.637C25.5762 101.855 26.5313 103.268 27.1934 104.844C27.8848 106.473 28.2305 108.207 28.2305 110C28.2305 111.787 27.8789 113.521 27.1934 115.156C26.5254 116.732 25.5703 118.15 24.3574 119.363C23.1387 120.582 21.7266 121.537 20.1504 122.199C18.5215 122.891 16.7871 123.242 15 123.242C13.2129 123.242 11.4785 122.891 9.84375 122.205C8.26758 121.537 6.84961 120.582 5.63672 119.369C4.41797 118.145 3.46289 116.732 2.79492 115.156C2.10938 113.521 1.75781 111.787 1.75781 110C1.75781 108.213 2.10938 106.479 2.79492 104.844C3.46289 103.268 4.41797 101.85 5.63086 100.637C6.84961 99.418 8.26172 98.4629 9.83789 97.8008C11.4668 97.1094 13.2012 96.7637 14.9941 96.7637C16.7813 96.7637 18.5156 97.1152 20.1504 97.8008C21.7266 98.4687 23.1445 99.4238 24.3574 100.637Z" fill="white" fill-opacity="0.5"/>
<path d="M20.1 110L8.9 110M8.9 110L12.9 114M8.9 110L12.9 106" stroke="white" stroke-width="1.5" stroke-linecap="round" stroke-linejoin="round"/>
</g>
<g clip-path="url(#clip7_1_2)">
<circle cx="47" cy="110" r="14.5" fill="#0D6EFD" stroke="#0D6EFD"/>
<path d="M52.1 110L40.9 110M40.9 110L44.9 114M40.9 110L44.9 106" stroke="white" stroke-width="1.5" stroke-linecap="round" stroke-linejoin="round"/>
</g>
<g clip-path="url(#clip8_1_2)">
<circle cx="111" cy="110" r="14.5" fill="#0D6EFD" stroke="#0D6EFD"/>
<path d="M105.9 110L117.1 110M117.1 110L113.1 106M117.1 110L113.1 114" stroke="white" stroke-width="1.5" stroke-linecap="round" stroke-linejoin="round"/>
</g>
<path d="M244 39.5L231 39.5M231 39.5L236.357 45M231 39.5L236.357 34" stroke="#666666" stroke-width="2" stroke-linecap="round" stroke-linejoin="round"/>
<path d="M263 39.5L250 39.5M250 39.5L255.357 45M250 39.5L255.357 34" stroke="#0D6EFD" stroke-width="2" stroke-linecap="round" stroke-linejoin="round"/>
<path fill-rule="evenodd" clip-rule="evenodd" d="M33 5.97258C31.2006 3.87142 28.1938 3.22208 25.9392 5.1461C23.6847 7.07012 23.3673 10.287 25.1378 12.5625C26.6098 14.4545 31.0648 18.4448 32.5249 19.7364C32.6882 19.8808 32.7699 19.9531 32.8652 19.9814C32.9483 20.0062 33.0393 20.0062 33.1225 19.9814C33.2178 19.9531 33.2994 19.8808 33.4628 19.7364C34.9229 18.4448 39.3778 14.4545 40.8499 12.5625C42.6204 10.287 42.3417 7.04988 40.0484 5.1461C37.7551 3.24232 34.7994 3.87142 33 5.97258Z" fill="white" stroke="#666666" stroke-width="2" stroke-linecap="round" stroke-linejoin="round"/>
<path fill-rule="evenodd" clip-rule="evenodd" d="M97.5 5.64381C96.0005 3.89285 93.4948 3.35173 91.616 4.95508C89.7372 6.55844 89.4727 9.23914 90.9482 11.1355C92.1749 12.7121 95.8873 16.0373 97.1041 17.1136C97.2402 17.234 97.3083 17.2942 97.3877 17.3179C97.4569 17.3385 97.5328 17.3385 97.6021 17.3179C97.6815 17.2942 97.7495 17.234 97.8857 17.1136C99.1024 16.0373 102.815 12.7121 104.042 11.1355C105.517 9.23914 105.285 6.54157 103.374 4.95508C101.463 3.3686 98.9995 3.89285 97.5 5.64381Z" fill="white" stroke="#424242" stroke-width="1.5" stroke-linecap="round" stroke-linejoin="round"/>
<path d="M153.5 34.4167V44.5C153.5 45.5125 154.321 46.3333 155.333 46.3333H162.667C163.679 46.3333 164.5 45.5125 164.5 44.5V34.4167M153.5 34.4167H152.583M153.5 34.4167H155.333M164.5 34.4167H165.417M164.5 34.4167H162.667M155.333 34.4167V32.5833C155.333 31.5708 156.154 30.75 157.167 30.75H160.833C161.846 30.75 162.667 31.5708 162.667 32.5833V34.4167M155.333 34.4167H162.667M157.167 38.0833V42.6667M160.833 38.0833V42.6667" stroke="#95A0C5" stroke-width="1.5" stroke-linecap="round" stroke-linejoin="round"/>
<path d="M175.5 34.4167V44.5C175.5 45.5125 176.321 46.3333 177.333 46.3333H184.667C185.679 46.3333 186.5 45.5125 186.5 44.5V34.4167M175.5 34.4167H174.583M175.5 34.4167H177.333M186.5 34.4167H187.417M186.5 34.4167H184.667M177.333 34.4167V32.5833C177.333 31.5708 178.154 30.75 179.167 30.75H182.833C183.846 30.75 184.667 31.5708 184.667 32.5833V34.4167M177.333 34.4167H184.667M179.167 38.0833V42.6667M182.833 38.0833V42.6667" stroke="#FF0000" stroke-width="1.5" stroke-linecap="round" stroke-linejoin="round"/>
<path d="M270.693 34.8568H273.258" stroke="#666666" stroke-width="1.5" stroke-miterlimit="10" stroke-linecap="round"/>
<path d="M277.833 34.8568H283.307" stroke="#666666" stroke-width="1.5" stroke-miterlimit="10" stroke-linecap="round"/>
<path d="M275.541 36.266C276.319 36.266 276.95 35.6351 276.95 34.8568C276.95 34.0785 276.319 33.4476 275.541 33.4476C274.763 33.4476 274.132 34.0785 274.132 34.8568C274.132 35.6351 274.763 36.266 275.541 36.266Z" stroke="#666666" stroke-width="1.5" stroke-miterlimit="10" stroke-linecap="round"/>
<path d="M283.307 38.9812H280.742" stroke="#666666" stroke-width="1.5" stroke-miterlimit="10" stroke-linecap="round"/>
<path d="M276.167 38.9812H270.693" stroke="#666666" stroke-width="1.5" stroke-miterlimit="10" stroke-linecap="round"/>
<path d="M278.459 40.3904C279.237 40.3904 279.868 39.7595 279.868 38.9812C279.868 38.2029 279.237 37.572 278.459 37.572C277.681 37.572 277.05 38.2029 277.05 38.9812C277.05 39.7595 277.681 40.3904 278.459 40.3904Z" stroke="#666666" stroke-width="1.5" stroke-miterlimit="10" stroke-linecap="round"/>
<path d="M283.307 43.1432H278.941" stroke="#666666" stroke-width="1.5" stroke-miterlimit="10" stroke-linecap="round"/>
<path d="M274.365 43.1432H270.693" stroke="#666666" stroke-width="1.5" stroke-miterlimit="10" stroke-linecap="round"/>
<path d="M276.658 44.5524C277.436 44.5524 278.067 43.9215 278.067 43.1432C278.067 42.3649 277.436 41.734 276.658 41.734C275.88 41.734 275.249 42.3649 275.249 43.1432C275.249 43.9215 275.88 44.5524 276.658 44.5524Z" stroke="#666666" stroke-width="1.5" stroke-miterlimit="10" stroke-linecap="round"/>
<path d="M289.693 34.8568H292.258" stroke="#0D6EFD" stroke-width="1.5" stroke-miterlimit="10" stroke-linecap="round"/>
<path d="M296.833 34.8568H302.307" stroke="#0D6EFD" stroke-width="1.5" stroke-miterlimit="10" stroke-linecap="round"/>
<path d="M294.541 36.266C295.319 36.266 295.95 35.6351 295.95 34.8568C295.95 34.0785 295.319 33.4476 294.541 33.4476C293.763 33.4476 293.132 34.0785 293.132 34.8568C293.132 35.6351 293.763 36.266 294.541 36.266Z" stroke="#0D6EFD" stroke-width="1.5" stroke-miterlimit="10" stroke-linecap="round"/>
<path d="M302.307 38.9812H299.742" stroke="#0D6EFD" stroke-width="1.5" stroke-miterlimit="10" stroke-linecap="round"/>
<path d="M295.167 38.9812H289.693" stroke="#0D6EFD" stroke-width="1.5" stroke-miterlimit="10" stroke-linecap="round"/>
<path d="M297.459 40.3904C298.237 40.3904 298.868 39.7595 298.868 38.9812C298.868 38.2029 298.237 37.572 297.459 37.572C296.681 37.572 296.05 38.2029 296.05 38.9812C296.05 39.7595 296.681 40.3904 297.459 40.3904Z" stroke="#0D6EFD" stroke-width="1.5" stroke-miterlimit="10" stroke-linecap="round"/>
<path d="M302.307 43.1432H297.941" stroke="#0D6EFD" stroke-width="1.5" stroke-miterlimit="10" stroke-linecap="round"/>
<path d="M293.365 43.1432H289.693" stroke="#0D6EFD" stroke-width="1.5" stroke-miterlimit="10" stroke-linecap="round"/>
<path d="M295.658 44.5524C296.436 44.5524 297.067 43.9215 297.067 43.1432C297.067 42.3649 296.436 41.734 295.658 41.734C294.88 41.734 294.249 42.3649 294.249 43.1432C294.249 43.9215 294.88 44.5524 295.658 44.5524Z" stroke="#0D6EFD" stroke-width="1.5" stroke-miterlimit="10" stroke-linecap="round"/>
<path d="M205 44L200 39M200 39L195 34M200 39L205 34M200 39L195 44" stroke="#95A0C5" stroke-width="2" stroke-linecap="round" stroke-linejoin="round"/>
<path d="M222 44L217 39M217 39L212 34M217 39L222 34M217 39L212 44" stroke="#0D6EFD" stroke-width="2" stroke-linecap="round" stroke-linejoin="round"/>
<path d="M320.333 44V34M320.333 34L323.667 37.4375M320.333 34L317 37.4375" stroke="#666666" stroke-width="1.5" stroke-linecap="round" stroke-linejoin="round"/>
<path d="M313.667 34V44M313.667 44L317 40.5625M313.667 44L310.333 40.5625" stroke="#666666" stroke-width="1.5" stroke-linecap="round" stroke-linejoin="round"/>
<path d="M341.333 44V34M341.333 34L344.667 37.4375M341.333 34L338 37.4375" stroke="#0D6EFD" stroke-width="1.5" stroke-linecap="round" stroke-linejoin="round"/>
<path d="M334.667 34V44M334.667 44L338 40.5625M334.667 44L331.333 40.5625" stroke="#0D6EFD" stroke-width="1.5" stroke-linecap="round" stroke-linejoin="round"/>
<circle cx="162.067" cy="75.0667" r="13.0667" fill="#E1E4E6"/>
<path d="M158.8 74.6778C158.8 75.7517 157.929 76.6222 156.856 76.6222C155.782 76.6222 154.911 75.7517 154.911 74.6778C154.911 73.6039 155.782 72.7333 156.856 72.7333C157.929 72.7333 158.8 73.6039 158.8 74.6778Z" stroke="#666666" stroke-width="1.5"/>
<path d="M162.5 70.5L158 73.5" stroke="#666666" stroke-width="1.5"/>
<path d="M162.671 79.0917L158.234 76" stroke="#666666" stroke-width="1.5"/>
<path d="M166.578 80.1222C166.578 81.1961 165.707 82.0667 164.633 82.0667C163.559 82.0667 162.689 81.1961 162.689 80.1222C162.689 79.0483 163.559 78.1778 164.633 78.1778C165.707 78.1778 166.578 79.0483 166.578 80.1222Z" stroke="#666666" stroke-width="1.5"/>
<path d="M166.578 70.0111C166.578 71.085 165.707 71.9556 164.633 71.9556C163.559 71.9556 162.689 71.085 162.689 70.0111C162.689 68.9372 163.559 68.0667 164.633 68.0667C165.707 68.0667 166.578 68.9372 166.578 70.0111Z" stroke="#666666" stroke-width="1.5"/>
<g clip-path="url(#clip9_1_2)">
<path d="M193.988 84.8436C192.211 84.8448 190.466 84.367 188.937 83.4605L188.576 83.235L184.833 84.2272L185.825 80.5741L185.585 80.1983C184.306 78.1337 183.828 75.6717 184.243 73.2787C184.658 70.8857 185.936 68.728 187.835 67.2142C189.734 65.7004 192.122 64.9358 194.548 65.0651C196.973 65.1945 199.267 66.2088 200.994 67.9159C202.882 69.7623 203.963 72.2809 204.001 74.9215C203.977 77.5613 202.911 80.0848 201.036 81.9431C199.161 83.8012 196.628 84.8438 193.988 84.8436Z" fill="white"/>
<path d="M202.407 66.4878C201.305 65.3774 199.993 64.4973 198.548 63.8985C197.103 63.2998 195.553 62.9943 193.988 63C191.897 63.002 189.843 63.5535 188.032 64.5992C186.22 65.6449 184.716 67.1481 183.668 68.9583C182.621 70.7685 182.067 72.8221 182.063 74.9134C182.059 77.0049 182.605 79.0605 183.645 80.8748L181.962 87.0535L188.276 85.3998C190.019 86.3698 191.978 86.8868 193.973 86.9032C197.145 86.9033 200.188 85.6506 202.44 83.4178C204.693 81.1852 205.972 78.1531 206 74.9817C205.989 73.3991 205.667 71.8342 205.05 70.3766C204.434 68.9191 203.535 67.5975 202.407 66.4878ZM193.988 84.8436C192.211 84.8448 190.466 84.367 188.937 83.4605L188.576 83.235L184.833 84.2272L185.825 80.5741L185.585 80.1983C184.306 78.1337 183.828 75.6717 184.243 73.2787C184.658 70.8857 185.936 68.728 187.835 67.2142C189.734 65.7004 192.122 64.9358 194.548 65.0651C196.973 65.1945 199.267 66.2088 200.994 67.9159C202.882 69.7623 203.963 72.2809 204.001 74.9215C203.977 77.5613 202.911 80.0848 201.036 81.943C199.161 83.8012 196.628 84.8438 193.988 84.8436ZM199.415 77.4171C199.115 77.2667 197.656 76.5451 197.386 76.4549C197.115 76.3647 196.905 76.3046 196.709 76.6053C196.415 77.0083 196.099 77.3947 195.762 77.7629C195.597 77.9733 195.416 77.9884 195.116 77.7629C193.402 77.0854 191.973 75.8377 191.072 74.23C190.756 73.7038 191.372 73.7339 191.944 72.6064C191.986 72.5251 192.008 72.4349 192.008 72.3433C192.008 72.2517 191.986 72.1615 191.944 72.0802C191.944 71.9299 191.267 70.4566 191.027 69.8703C190.786 69.284 190.546 69.3742 190.35 69.3591H189.764C189.612 69.3615 189.462 69.3962 189.325 69.461C189.188 69.5258 189.066 69.6192 188.967 69.735C188.63 70.063 188.367 70.4595 188.196 70.8977C188.024 71.336 187.949 71.8058 187.975 72.2756C188.069 73.4003 188.493 74.4722 189.193 75.3575C190.474 77.2755 192.23 78.8292 194.289 79.8675C195.369 80.498 196.624 80.7617 197.867 80.6192C198.281 80.5371 198.673 80.3689 199.017 80.1254C199.362 79.882 199.651 79.5687 199.866 79.2061C200.066 78.7635 200.129 78.2714 200.047 77.7929C199.911 77.6426 199.716 77.5674 199.415 77.4171Z" fill="#666666"/>
</g>
<g clip-path="url(#clip10_1_2)">
<circle cx="302.5" cy="75.5" r="12.5" fill="#0D6EFD"/>
<path d="M304.15 71.2373C304.653 71.2373 305.19 71.3936 305.19 71.3936L305.513 69.4795C305.513 69.4795 304.829 69.2451 303.198 69.2451C302.197 69.2451 301.616 69.626 301.191 70.1875C300.791 70.7197 300.776 71.5742 300.776 72.126V73.3809H299.482V75.251H300.776V81.7451H303.198V75.251H305.117L305.259 73.3809H303.198V71.9209C303.198 71.418 303.647 71.2373 304.15 71.2373Z" fill="white"/>
</g>
<g clip-path="url(#clip11_1_2)">
<circle cx="329.5" cy="75.5" r="12.5" fill="#0D6EFD"/>
<path d="M329.5 69.3333C330.94 69.3333 331.94 69.3346 332.712 69.4095C333.467 69.4826 333.887 69.6181 334.199 69.8138C334.598 70.0645 334.935 70.4021 335.186 70.8011C335.382 71.1128 335.517 71.533 335.59 72.2884C335.665 73.0606 335.666 74.061 335.666 75.5003C335.666 76.9396 335.665 77.94 335.59 78.7122C335.517 79.4673 335.382 79.8869 335.186 80.1986C334.935 80.5975 334.598 80.9352 334.199 81.1859C333.887 81.3817 333.467 81.5169 332.712 81.5902C331.94 81.6651 330.94 81.6663 329.5 81.6663C328.061 81.6663 327.061 81.665 326.288 81.5902C325.533 81.5169 325.113 81.3818 324.801 81.1859C324.402 80.9352 324.064 80.5975 323.814 80.1986C323.643 79.9258 323.517 79.5703 323.44 78.9798L323.409 78.7122L323.385 78.4115C323.335 77.683 323.333 76.7598 323.333 75.5003C323.333 74.0611 323.335 73.0606 323.409 72.2884C323.483 71.5332 323.618 71.1129 323.814 70.8011C324.064 70.4021 324.402 70.0645 324.801 69.8138C325.113 69.618 325.533 69.4826 326.288 69.4095C327.061 69.3346 328.061 69.3333 329.5 69.3333Z" fill="white" stroke="#0D6EFD"/>
<path d="M329.5 78.5303C331.174 78.5303 332.53 77.1736 332.53 75.5C332.53 73.8264 331.174 72.4697 329.5 72.4697C327.826 72.4697 326.47 73.8264 326.47 75.5C326.47 77.1736 327.826 78.5303 329.5 78.5303Z" fill="white" stroke="#0D6EFD"/>
<path d="M333.439 72.4697C333.941 72.4697 334.348 72.0627 334.348 71.5606C334.348 71.0585 333.941 70.6515 333.439 70.6515C332.937 70.6515 332.53 71.0585 332.53 71.5606C332.53 72.0627 332.937 72.4697 333.439 72.4697Z" fill="white"/>
<path d="M333.439 72.4699C333.91 72.4698 334.297 72.1119 334.344 71.6535L334.349 71.5607C334.349 71.09 333.991 70.7029 333.532 70.6564L333.439 70.6515M333.439 72.4699V70.6515M333.439 72.4699L333.347 72.465C332.919 72.4216 332.579 72.0814 332.535 71.6535L332.53 71.5607C332.53 71.0586 332.937 70.6515 333.439 70.6515M333.439 72.4699V70.6515" stroke="black" stroke-opacity="0.01" stroke-width="4.16667"/>
</g>
<g clip-path="url(#clip12_1_2)">
<path d="M275.988 84.8436C274.211 84.8448 272.466 84.367 270.937 83.4605L270.576 83.235L266.833 84.2272L267.825 80.5741L267.585 80.1983C266.306 78.1337 265.828 75.6717 266.243 73.2787C266.658 70.8857 267.936 68.728 269.835 67.2142C271.734 65.7004 274.123 64.9358 276.548 65.0651C278.973 65.1945 281.267 66.2088 282.994 67.9159C284.882 69.7623 285.963 72.2809 286.001 74.9215C285.977 77.5613 284.911 80.0848 283.036 81.9431C281.161 83.8012 278.628 84.8438 275.988 84.8436Z" fill="#0D6EFD"/>
<path d="M284.407 66.4878C283.305 65.3774 281.993 64.4973 280.548 63.8985C279.103 63.2998 277.553 62.9943 275.988 63C273.897 63.002 271.843 63.5535 270.032 64.5992C268.22 65.6449 266.716 67.1481 265.668 68.9583C264.621 70.7685 264.067 72.8221 264.063 74.9134C264.059 77.0049 264.605 79.0605 265.645 80.8748L263.962 87.0535L270.276 85.3998C272.019 86.3698 273.978 86.8868 275.973 86.9032C279.145 86.9033 282.188 85.6506 284.44 83.4178C286.693 81.1852 287.972 78.1531 288 74.9817C287.989 73.3991 287.667 71.8342 287.05 70.3766C286.434 68.9191 285.535 67.5975 284.407 66.4878ZM275.988 84.8436C274.211 84.8448 272.466 84.367 270.937 83.4605L270.576 83.235L266.833 84.2272L267.825 80.5741L267.585 80.1983C266.306 78.1337 265.828 75.6717 266.243 73.2787C266.658 70.8857 267.936 68.728 269.835 67.2142C271.734 65.7004 274.122 64.9358 276.548 65.0651C278.973 65.1945 281.267 66.2088 282.994 67.9159C284.882 69.7623 285.963 72.2809 286.001 74.9215C285.977 77.5613 284.911 80.0848 283.036 81.943C281.161 83.8012 278.628 84.8438 275.988 84.8436ZM281.415 77.4171C281.115 77.2667 279.656 76.5451 279.386 76.4549C279.115 76.3647 278.905 76.3046 278.709 76.6053C278.415 77.0083 278.099 77.3947 277.762 77.7629C277.597 77.9733 277.416 77.9884 277.116 77.7629C275.402 77.0854 273.973 75.8377 273.072 74.23C272.756 73.7038 273.372 73.7339 273.944 72.6064C273.986 72.5251 274.008 72.4349 274.008 72.3433C274.008 72.2517 273.986 72.1615 273.944 72.0802C273.944 71.9299 273.267 70.4566 273.027 69.8703C272.786 69.284 272.546 69.3742 272.35 69.3591H271.764C271.612 69.3615 271.462 69.3962 271.325 69.461C271.188 69.5258 271.066 69.6192 270.967 69.735C270.63 70.063 270.367 70.4595 270.196 70.8977C270.024 71.336 269.949 71.8058 269.975 72.2756C270.069 73.4003 270.493 74.4722 271.193 75.3575C272.474 77.2755 274.23 78.8292 276.289 79.8675C277.369 80.498 278.624 80.7617 279.867 80.6192C280.281 80.5371 280.673 80.3689 281.017 80.1254C281.362 79.882 281.651 79.5687 281.866 79.2061C282.066 78.7635 282.129 78.2714 282.047 77.7929C281.911 77.6426 281.716 77.5674 281.415 77.4171Z" fill="#0D6EFD"/>
<path d="M281.415 77.4171C281.115 77.2667 279.656 76.5451 279.386 76.4549C279.115 76.3647 278.905 76.3046 278.709 76.6053C278.415 77.0083 278.099 77.3947 277.762 77.7628C277.597 77.9733 277.416 77.9884 277.116 77.7628C275.402 77.0854 273.973 75.8377 273.072 74.23C272.756 73.7038 273.372 73.7339 273.944 72.6064C273.986 72.5251 274.008 72.4349 274.008 72.3433C274.008 72.2517 273.986 72.1615 273.944 72.0802C273.944 71.9299 273.267 70.4566 273.027 69.8703C272.786 69.284 272.546 69.3742 272.35 69.3591H271.764C271.612 69.3615 271.462 69.3962 271.325 69.461C271.188 69.5258 271.066 69.6192 270.967 69.735C270.63 70.063 270.367 70.4595 270.196 70.8977C270.024 71.336 269.949 71.8058 269.975 72.2756C270.069 73.4003 270.493 74.4722 271.193 75.3575C272.474 77.2755 274.23 78.8292 276.289 79.8675C277.369 80.498 278.624 80.7617 279.867 80.6192C280.281 80.5371 280.673 80.3689 281.017 80.1254C281.362 79.882 281.651 79.5687 281.866 79.2061C282.066 78.7635 282.129 78.2714 282.047 77.7929C281.911 77.6426 281.716 77.5674 281.415 77.4171Z" fill="white"/>
</g>
<path d="M11.5 9.58333C13.6171 9.58333 15.3333 7.86709 15.3333 5.75C15.3333 3.63291 13.6171 1.91667 11.5 1.91667C9.38291 1.91667 7.66667 3.63291 7.66667 5.75C7.66667 7.86709 9.38291 9.58333 11.5 9.58333Z" stroke="#666666" stroke-width="2"/>
<path d="M19.1643 17.25C19.1667 17.0926 19.1667 16.9328 19.1667 16.7708C19.1667 14.3891 15.7342 12.4583 11.5 12.4583C7.26582 12.4583 3.83333 14.3891 3.83333 16.7708C3.83333 19.1526 3.83333 21.0833 11.5 21.0833C13.638 21.0833 15.1798 20.9332 16.2917 20.6649" stroke="#666666" stroke-width="2" stroke-linecap="round"/>
<path d="M58.125 10.625L59 15.875" stroke="#666666" stroke-width="1.5" stroke-linecap="round"/>
<path d="M52.875 10.625L52 15.875" stroke="#666666" stroke-width="1.5" stroke-linecap="round"/>
<path d="M52.875 6.25V5.375C52.875 3.92526 54.0502 2.75 55.5 2.75C56.9498 2.75 58.125 3.92526 58.125 5.375V6.25" stroke="#666666" stroke-width="1.5" stroke-linecap="round"/>
<path d="M62.6956 11.96C62.1834 9.22895 61.9274 7.86344 60.9554 7.05671C59.9833 6.25 58.5941 6.25 55.8154 6.25H55.1844C52.4058 6.25 51.0165 6.25 50.0444 7.05671C49.0724 7.86344 48.8164 9.22895 48.3043 11.96C47.5842 15.8003 47.2242 17.7205 48.2739 18.9852C49.3235 20.25 51.2772 20.25 55.1844 20.25H55.8154C59.7227 20.25 61.6763 20.25 62.7259 18.9852C63.3349 18.2514 63.4694 17.297 63.3344 15.875" stroke="#666666" stroke-width="1.5" stroke-linecap="round"/>
<path d="M164.5 11.1667L165.333 16.1667" stroke="white" stroke-width="1.5" stroke-linecap="round"/>
<path d="M159.5 11.1667L158.667 16.1667" stroke="white" stroke-width="1.5" stroke-linecap="round"/>
<path d="M159.5 7V6.16667C159.5 4.78596 160.619 3.66667 162 3.66667C163.381 3.66667 164.5 4.78596 164.5 6.16667V7" stroke="white" stroke-width="1.5" stroke-linecap="round"/>
<path d="M168.853 12.4381C168.365 9.8371 168.121 8.53661 167.196 7.7683C166.27 7 164.947 7 162.3 7H161.699C159.053 7 157.73 7 156.804 7.7683C155.878 8.53661 155.635 9.8371 155.147 12.4381C154.461 16.0955 154.118 17.9243 155.118 19.1288C156.118 20.3333 157.978 20.3333 161.699 20.3333H162.3C166.022 20.3333 167.882 20.3333 168.882 19.1288C169.462 18.4299 169.59 17.521 169.461 16.1667" stroke="white" stroke-width="1.5" stroke-linecap="round"/>
<path d="M116.5 13.83L113.123 15.8837C113.044 15.9318 112.953 15.9555 112.86 15.9518C112.768 15.948 112.679 15.917 112.604 15.8627C112.529 15.8084 112.472 15.7332 112.44 15.6465C112.408 15.5599 112.402 15.4656 112.423 15.3756L113.333 11.5287L110.336 8.95187C110.266 8.89158 110.215 8.81192 110.19 8.7229C110.165 8.63389 110.167 8.53949 110.196 8.45159C110.224 8.36368 110.278 8.28619 110.351 8.22886C110.423 8.17153 110.511 8.13692 110.603 8.12937L114.543 7.80625L116.068 4.15938C116.103 4.07407 116.163 4.00121 116.24 3.94996C116.317 3.89872 116.408 3.87137 116.5 3.87137C116.592 3.87137 116.683 3.89872 116.76 3.94996C116.837 4.00121 116.897 4.07407 116.933 4.15938L118.458 7.80625L122.397 8.12937C122.489 8.13703 122.577 8.17172 122.649 8.22909C122.722 8.28646 122.775 8.36396 122.804 8.45185C122.832 8.53973 122.834 8.63408 122.809 8.72305C122.784 8.81201 122.734 8.89162 122.664 8.95187L119.667 11.5287L120.577 15.3756C120.598 15.4656 120.592 15.5599 120.56 15.6465C120.528 15.7332 120.471 15.8084 120.396 15.8627C120.321 15.917 120.232 15.948 120.14 15.9518C120.047 15.9555 119.956 15.9318 119.877 15.8837L116.5 13.83Z" fill="#107C05"/>
<path d="M139.5 18.05L133.872 21.4729C133.74 21.5531 133.588 21.5925 133.434 21.5863C133.28 21.58 133.131 21.5284 133.007 21.4379C132.882 21.3474 132.787 21.222 132.733 21.0775C132.679 20.9331 132.67 20.776 132.705 20.626L134.222 14.2146L129.226 9.91979C129.109 9.8193 129.025 9.68653 128.983 9.53817C128.942 9.38981 128.945 9.23249 128.993 9.08598C129.04 8.93947 129.13 8.81032 129.251 8.71477C129.372 8.61922 129.518 8.56153 129.672 8.54896L136.237 8.01042L138.779 1.93229C138.839 1.79011 138.939 1.66868 139.067 1.58327C139.195 1.49786 139.346 1.45229 139.5 1.45229C139.654 1.45229 139.805 1.49786 139.933 1.58327C140.061 1.66868 140.161 1.79011 140.221 1.93229L142.762 8.01042L149.328 8.54896C149.482 8.56171 149.628 8.61953 149.749 8.71515C149.869 8.81077 149.959 8.93994 150.007 9.08641C150.054 9.23288 150.057 9.39014 150.016 9.53841C149.974 9.68668 149.89 9.81937 149.773 9.91979L144.778 14.2146L146.295 20.626C146.33 20.776 146.321 20.9331 146.267 21.0775C146.213 21.222 146.118 21.3474 145.993 21.4379C145.869 21.5284 145.72 21.58 145.566 21.5863C145.412 21.5925 145.26 21.5531 145.128 21.4729L139.5 18.05Z" fill="#107C05"/>
<path d="M11.8505 167.524C9.4556 156.348 8.25817 150.76 11.26 147.047C14.2618 143.333 19.9767 143.333 31.4065 143.333H48.5937C60.0237 143.333 65.7383 143.333 68.7403 147.047C71.742 150.76 70.5447 156.348 68.1497 167.524L66.7213 174.191C65.098 181.766 64.2863 185.553 61.536 187.777C58.7857 190 54.9123 190 47.165 190H32.8351C25.088 190 21.2144 190 18.4642 187.777C15.7139 185.553 14.9023 181.766 13.2791 174.191L11.8505 167.524Z" stroke="#1C274C" stroke-width="3"/>
<path opacity="0.5" d="M26.6667 160H53.3333" stroke="#1C274C" stroke-width="3" stroke-linecap="round" stroke-linejoin="round"/>
<path opacity="0.5" d="M33.3333 170H46.6667" stroke="#1C274C" stroke-width="3" stroke-linecap="round" stroke-linejoin="round"/>
<path opacity="0.6" d="M60 150L50 130" stroke="#1C274C" stroke-width="3" stroke-linecap="round" stroke-linejoin="round"/>
<path opacity="0.6" d="M20 150L30 130" stroke="#1C274C" stroke-width="3" stroke-linecap="round" stroke-linejoin="round"/>
<path d="M120.625 35.125L122.746 37.2463M111.25 46.7498L111.286 46.5006C111.412 45.6192 111.474 45.1784 111.618 44.7669C111.745 44.4017 111.918 44.0544 112.134 43.7337C112.378 43.3722 112.692 43.0574 113.322 42.4278L122.058 33.6917C122.644 33.1059 123.594 33.1059 124.179 33.6917C124.765 34.2775 124.765 35.2273 124.179 35.813L115.283 44.7093C114.712 45.2806 114.426 45.5662 114.101 45.7933C113.812 45.9949 113.501 46.1619 113.173 46.2909C112.804 46.4363 112.408 46.5161 111.616 46.6759L111.25 46.7498Z" stroke="#95A0C5" stroke-width="1.5" stroke-linecap="round" stroke-linejoin="round"/>
<path d="M139.625 35.125L141.746 37.2463M130.25 46.7498L130.286 46.5006C130.412 45.6192 130.474 45.1784 130.618 44.7669C130.745 44.4017 130.918 44.0544 131.134 43.7337C131.378 43.3722 131.692 43.0574 132.322 42.4278L141.058 33.6917C141.644 33.1059 142.594 33.1059 143.179 33.6917C143.765 34.2775 143.765 35.2273 143.179 35.813L134.283 44.7093C133.712 45.2806 133.426 45.5662 133.101 45.7933C132.812 45.9949 132.501 46.1619 132.173 46.2909C131.804 46.4363 131.408 46.5161 130.616 46.6759L130.25 46.7498Z" stroke="#0D6EFD" stroke-width="1.5" stroke-linecap="round" stroke-linejoin="round"/>
<path d="M60.222 41.6945L59.5201 42.316C59.6892 42.507 59.9288 42.6208 60.1837 42.6311C60.4386 42.6416 60.6867 42.5478 60.8708 42.3711L60.222 41.6945ZM62.8988 40.4268C63.2726 40.0684 63.2851 39.4749 62.9267 39.1011C62.5684 38.7275 61.9749 38.715 61.6012 39.0733L62.8988 40.4268ZM59.2019 39.1285C58.8586 38.7409 58.2661 38.7049 57.8785 39.0481C57.4908 39.3914 57.4549 39.9839 57.7982 40.3715L59.2019 39.1285ZM69.6646 37.2616C70.0163 37.6417 70.6094 37.6648 70.9894 37.3132C71.3695 36.9616 71.3926 36.3684 71.041 35.9884L69.6646 37.2616ZM66.0546 33.8125C62.3225 33.8125 59.2845 36.8162 59.2845 40.537H61.1595C61.1595 37.8656 63.3441 35.6875 66.0546 35.6875V33.8125ZM59.2845 40.537V41.6945H61.1595V40.537H59.2845ZM60.8708 42.3711L62.8988 40.4268L61.6012 39.0733L59.5731 41.0178L60.8708 42.3711ZM60.9238 41.0729L59.2019 39.1285L57.7982 40.3715L59.5201 42.316L60.9238 41.0729ZM71.041 35.9884C69.8039 34.6511 68.0265 33.8125 66.0546 33.8125V35.6875C67.4849 35.6875 68.7693 36.2938 69.6646 37.2616L71.041 35.9884Z" fill="#666666"/>
<path d="M71.7735 40.3054L72.4744 39.6827C72.305 39.4921 72.0654 39.3787 71.8106 39.3686C71.5559 39.3585 71.308 39.4526 71.1241 39.6292L71.7735 40.3054ZM69.1006 41.5726C68.7271 41.9312 68.7152 42.5247 69.0739 42.8981C69.4325 43.2716 70.026 43.2836 70.3994 42.925L69.1006 41.5726ZM72.7991 42.8715C73.143 43.2585 73.7356 43.2935 74.1226 42.9496C74.5098 42.6057 74.5447 42.0132 74.2009 41.6261L72.7991 42.8715ZM62.3086 44.7559C61.9543 44.3784 61.361 44.3595 60.9834 44.7139C60.6059 45.0681 60.5871 45.6615 60.9414 46.039L62.3086 44.7559ZM65.9185 48.1874C69.6595 48.1874 72.711 45.187 72.711 41.4629H70.836C70.836 44.1309 68.6447 46.3124 65.9185 46.3124V48.1874ZM72.711 41.4629V40.3054H70.836V41.4629H72.711ZM71.1241 39.6292L69.1006 41.5726L70.3994 42.925L72.4229 40.9816L71.1241 39.6292ZM71.0726 40.9281L72.7991 42.8715L74.2009 41.6261L72.4744 39.6827L71.0726 40.9281ZM60.9414 46.039C62.1818 47.3606 63.9544 48.1874 65.9185 48.1874V46.3124C64.49 46.3124 63.2068 45.713 62.3086 44.7559L60.9414 46.039Z" fill="#666666"/>
<path d="M66 53.5C72.9036 53.5 78.5 47.9036 78.5 41C78.5 34.0964 72.9036 28.5 66 28.5C59.0964 28.5 53.5 34.0964 53.5 41C53.5 47.9036 59.0964 53.5 66 53.5Z" stroke="#666666" stroke-width="1.5"/>
<path d="M88.222 41.6945L87.5201 42.316C87.6892 42.507 87.9288 42.6208 88.1837 42.6311C88.4386 42.6416 88.6867 42.5478 88.8708 42.3711L88.222 41.6945ZM90.8988 40.4268C91.2726 40.0684 91.2851 39.4749 90.9267 39.1011C90.5684 38.7275 89.9749 38.715 89.6012 39.0733L90.8988 40.4268ZM87.2019 39.1285C86.8586 38.7409 86.2661 38.7049 85.8785 39.0481C85.4908 39.3914 85.4549 39.9839 85.7982 40.3715L87.2019 39.1285ZM97.6646 37.2616C98.0163 37.6417 98.6094 37.6648 98.9894 37.3132C99.3695 36.9616 99.3926 36.3684 99.041 35.9884L97.6646 37.2616ZM94.0546 33.8125C90.3225 33.8125 87.2845 36.8162 87.2845 40.537H89.1595C89.1595 37.8656 91.3441 35.6875 94.0546 35.6875V33.8125ZM87.2845 40.537V41.6945H89.1595V40.537H87.2845ZM88.8708 42.3711L90.8988 40.4268L89.6012 39.0733L87.5731 41.0178L88.8708 42.3711ZM88.9238 41.0729L87.2019 39.1285L85.7982 40.3715L87.5201 42.316L88.9238 41.0729ZM99.041 35.9884C97.8039 34.6511 96.0265 33.8125 94.0546 33.8125V35.6875C95.4849 35.6875 96.7693 36.2938 97.6646 37.2616L99.041 35.9884Z" fill="#0D6EFD"/>
<path d="M99.7735 40.3054L100.474 39.6827C100.305 39.4921 100.065 39.3787 99.8106 39.3686C99.5559 39.3585 99.308 39.4526 99.1241 39.6292L99.7735 40.3054ZM97.1006 41.5726C96.7271 41.9312 96.7153 42.5247 97.0739 42.8981C97.4325 43.2716 98.026 43.2836 98.3994 42.925L97.1006 41.5726ZM100.799 42.8715C101.143 43.2585 101.736 43.2935 102.123 42.9496C102.51 42.6057 102.545 42.0132 102.201 41.6261L100.799 42.8715ZM90.3086 44.7559C89.9543 44.3784 89.361 44.3595 88.9834 44.7139C88.6059 45.0681 88.5871 45.6615 88.9414 46.039L90.3086 44.7559ZM93.9185 48.1874C97.6595 48.1874 100.711 45.187 100.711 41.4629H98.836C98.836 44.1309 96.6448 46.3124 93.9185 46.3124V48.1874ZM100.711 41.4629V40.3054H98.836V41.4629H100.711ZM99.1241 39.6292L97.1006 41.5726L98.3994 42.925L100.423 40.9816L99.1241 39.6292ZM99.0726 40.9281L100.799 42.8715L102.201 41.6261L100.474 39.6827L99.0726 40.9281ZM88.9414 46.039C90.1818 47.3606 91.9544 48.1874 93.9185 48.1874V46.3124C92.49 46.3124 91.2068 45.713 90.3086 44.7559L88.9414 46.039Z" fill="#0D6EFD"/>
<path d="M94 53.5C100.904 53.5 106.5 47.9036 106.5 41C106.5 34.0964 100.904 28.5 94 28.5C87.0964 28.5 81.5 34.0964 81.5 41C81.5 47.9036 87.0964 53.5 94 53.5Z" stroke="#0D6EFD" stroke-width="1.5"/>
<path d="M80.8938 14.8677L84.5 18.5M82.8333 10.1667C82.8333 13.8486 79.8486 16.8333 76.1667 16.8333C72.4848 16.8333 69.5 13.8486 69.5 10.1667C69.5 6.48477 72.4848 3.5 76.1667 3.5C79.8486 3.5 82.8333 6.48477 82.8333 10.1667Z" stroke="#666666" stroke-width="2" stroke-linecap="round" stroke-linejoin="round"/>
</g>
<defs>
<clipPath id="clip0_1_2">
<rect width="400" height="400" fill="white"/>
</clipPath>
<clipPath id="clip1_1_2">
<rect width="25" height="25" fill="white" transform="translate(208 63)"/>
</clipPath>
<clipPath id="clip2_1_2">
<rect width="25" height="25" fill="white" transform="translate(235 63)"/>
</clipPath>
<clipPath id="clip3_1_2">
<rect width="35" height="35" fill="white" transform="translate(0 58)"/>
</clipPath>
<clipPath id="clip4_1_2">
<rect width="35" height="35" fill="white" transform="translate(37 58)"/>
</clipPath>
<clipPath id="clip5_1_2">
<rect width="30" height="30" fill="white" transform="translate(94 95) rotate(90)"/>
</clipPath>
<clipPath id="clip6_1_2">
<rect width="30" height="30" fill="white" transform="translate(1.31134e-06 125) rotate(-90)"/>
</clipPath>
<clipPath id="clip7_1_2">
<rect width="30" height="30" fill="white" transform="translate(32 125) rotate(-90)"/>
</clipPath>
<clipPath id="clip8_1_2">
<rect width="30" height="30" fill="white" transform="translate(126 95) rotate(90)"/>
</clipPath>
<clipPath id="clip9_1_2">
<rect width="25" height="25" fill="white" transform="translate(181 63)"/>
</clipPath>
<clipPath id="clip10_1_2">
<rect width="25" height="25" fill="white" transform="translate(290 63)"/>
</clipPath>
<clipPath id="clip11_1_2">
<rect width="25" height="25" fill="white" transform="translate(317 63)"/>
</clipPath>
<clipPath id="clip12_1_2">
<rect width="25" height="25" fill="white" transform="translate(263 63)"/>
</clipPath>
</defs>
</svg>
